<svg width="13" height="13" viewBox="0 0 13 13" fill="none" xmlns="http://www.w3.org/2000/svg">
<path d="M6.34484 0.448303C7.16792 0.448303 7.9573 0.775273 8.53931 1.35728C9.12132 1.93929 9.44828 2.72867 9.44828 3.55175C9.44828 4.37484 9.12132 5.16421 8.53931 5.74622C7.9573 6.32823 7.16792 6.6552 6.34484 6.6552C5.52175 6.6552 4.73238 6.32823 4.15037 5.74622C3.56836 5.16421 3.24139 4.37484 3.24139 3.55175C3.24139 2.72867 3.56836 1.93929 4.15037 1.35728C4.73238 0.775273 5.52175 0.448303 6.34484 0.448303ZM6.34484 8.20692C9.77415 8.20692 12.5517 9.59572 12.5517 11.3104V12.8621H0.137939V11.3104C0.137939 9.59572 2.91553 8.20692 6.34484 8.20692Z" fill="white"/>
</svg>
